<svg height="496pt" viewBox="0 0 496 496" width="496pt" xmlns="http://www.w3.org/2000/svg"><path d="m392 368c-13.230469 0-24 10.769531-24 24s10.769531 24 24 24 24-10.769531 24-24-10.769531-24-24-24zm0 32c-4.414062 0-8-3.59375-8-8s3.585938-8 8-8 8 3.59375 8 8-3.585938 8-8 8zm0 0"/><path d="m495.503906 51.824219c.328125-2.144531.496094-4.304688.496094-6.472657v-2.765624c0-23.480469-19.105469-42.585938-42.585938-42.585938-20.980468 0-38.660156 15.03125-42.039062 35.742188l-3.453125 21.21875c-10.945313-19.640626-31.898437-32.960938-55.921875-32.960938-35.289062 0-64 28.710938-64 64v3.886719c-19.046875-31.054688-53.207031-51.886719-92.230469-51.886719-19.609375 0-38.867187 5.335938-55.691406 15.425781l-44.078125 26.445313v-9.871094c0-17.648438-14.351562-32-32-32s-32 14.351562-32 32v34.230469l-32 10.671875v150.195312l32 10.671875v34.230469c0 17.648438 14.351562 32 32 32s32-14.351562 32-32v-9.871094l44.078125 26.445313c.824219.496093 1.683594.921875 2.515625 1.394531l-60.007812 150.03125h-82.585938v16h496v-16h-96v-32.640625c26.785156-3.855469 47.488281-26.6875 47.953125-54.414063l26.054687-156.34375c3.816407-22.914062.808594-45.96875-8.535156-67.074218 9.496094-10.953125 15.65625-24.214844 17.871094-38.679688zm-191.503906 36.175781c0-26.472656 21.527344-48 48-48s48 21.527344 48 48v16c0 .792969-.078125 1.566406-.121094 2.351562l-1.757812 10.800782c-5.738282 20.085937-24.21875 34.847656-46.121094 34.847656-26.472656 0-48-21.527344-48-48zm-122.222656 340.390625c5.679687 9.488281 15.046875 16.519531 26.222656 18.800781v32.808594h-44.648438zm34.222656 3.609375c-13.230469 0-24-10.769531-24-24s10.769531-24 24-24h120.640625c-.375 2.625-.640625 5.28125-.640625 8 0 15.664062 6.480469 29.824219 16.886719 40zm125.480469-64h-25.800781l-3.953126-4.617188c-24.925781-29.078124-38.847656-65.984374-39.582031-104.214843l18.175781-18.175781c7.328126 43.664062 27.246094 84.464843 57.160157 117.175781-2.320313 3.046875-4.335938 6.335937-6 9.832031zm-245.480469-137.511719 66.457031 36.917969c-23.210937-4.636719-45.664062-12.789062-66.457031-24.191406zm-10.238281-23.992187c-3.554688-1.976563-5.761719-5.726563-5.761719-9.792969v-1.503906c0-6.175781 5.023438-11.199219 11.199219-11.199219 1.832031 0 3.648437.457031 5.265625 1.320312l121 64.527344 85.558594-85.566406c2.738281-2.722656 6.496093-4.28125 10.351562-4.28125 8.066406 0 14.625 6.558594 14.625 14.632812 0 3.902344-1.519531 7.582032-4.28125 10.34375l-90.414062 90.398438c-4.863282 4.871094-12.792969 5.976562-18.808594 2.640625zm273.117187 140.457031c-30.214844-33.226563-49.429687-75.351563-54.445312-120.074219l30.597656-30.597656c5.785156-5.785156 8.96875-13.472656 8.96875-21.648438 0-2.542968-.398438-4.976562-.984375-7.335937 2.945313.414063 5.929687.703125 8.984375.703125 14.617188 0 26.96875 10.464844 29.367188 24.878906l2.242187 13.433594-22.648437 139.113281c-.714844.476563-1.394532 1.015625-2.082032 1.527344zm30.402344-175.496094c-2.664062-3.777343-5.816406-7.113281-9.457031-9.90625 4.40625-2.144531 8.558593-4.734375 12.335937-7.78125zm-240.96875-102.3125c14.328125-8.601562 30.742188-13.144531 47.457031-13.144531 50.855469 0 92.230469 41.375 92.230469 92.230469v8.457031l-73.472656 73.464844-101.527344-54.152344h95v-16h-112v-19.207031c34.273438-18.792969 72.871094-28.792969 112-28.792969v-16c-38.894531 0-77.328125 9.246094-112 26.703125v-22.175781zm-132.3125 186.421875v-127.132812l16-5.335938v137.796875zm48 72.433594c-8.824219 0-16-7.175781-16-16v-240c0-8.824219 7.175781-16 16-16s16 7.175781 16 16v98.480469c-9.40625 4.289062-16 13.726562-16 24.71875v1.503906c0 9.871094 5.359375 18.984375 13.992188 23.777344l2.007812 1.113281v90.40625c0 8.824219-7.175781 16-16 16zm32-44.527344v-22.152344c31.984375 16.09375 67.320312 25.183594 103.128906 26.464844l7.597656 4.222656c4.707032 2.617188 10.042969 4 15.433594 4 8.480469 0 16.457032-3.304687 22.464844-9.304687l12.398438-12.398437c.898437 8.765624 2.457031 17.414062 4.601562 25.910156-17.304688 17.640625-41.128906 27.785156-65.855469 27.785156-16.714843 0-33.128906-4.542969-47.457031-13.144531zm61.105469 53.320313c12.300781 4.710937 25.390625 7.207031 38.664062 7.207031 26.125 0 51.4375-9.59375 71.039063-26.601562 6.558594 18.195312 16.128906 35.25 28.238281 50.601562h-80.496094c-16.863281 0-32.007812 10.664062-37.671875 26.542969l-30.511718 85.457031h-46.542969zm66.894531 143.207031v-32h160v32zm168-48c-22.054688 0-40-17.945312-40-40s17.945312-40 40-40 40 17.945312 40 40-17.945312 40-40 40zm66.222656-198.023438-20.878906 125.296876c-10.183594-14.074219-26.6875-23.273438-45.34375-23.273438-4.6875 0-9.214844.640625-13.566406 1.734375l21.328125-131.023437.132812-.023438-.0625-.398438 5.832031-35.832031 44.9375 4.992188c8.261719 18.390625 10.949219 38.519531 7.621094 58.527343zm21.777344-188.625c0 1.351563-.105469 2.710938-.304688 4.039063l-12.167968 79.023437c-1.800782 11.699219-6.832032 22.410157-14.605469 31.1875l-44.691406-4.96875 5.609375-34.441406c1.007812-3.855468 1.671875-7.832031 1.945312-11.925781l11.390625-69.953125c2.097657-12.929688 13.136719-22.3125 26.238281-22.3125 14.65625 0 26.585938 11.929688 26.585938 26.585938zm0 0"/></svg>