<svg height="496pt" viewBox="0 0 496 496" width="496pt" xmlns="http://www.w3.org/2000/svg"><path d="m496 272v-8c0-8.824219-7.175781-16-16-16h-32.863281l-10.382813-55.375c-3.546875-18.90625-20.074218-32.625-39.304687-32.625h-127.601563c1.398438-7.886719 2.152344-15.921875 2.152344-24 0-74.992188-61.007812-136-136-136s-136 61.007812-136 136c0 72.289062 56.734375 131.414062 128 135.59375v.40625c0 16.617188 12.769531 30.152344 28.992188 31.695312l-13.960938 13.960938c-4.535156 4.527344-7.03125 10.558594-7.03125 16.96875v64.816406c0 8.039063 3.992188 15.503906 10.6875 19.964844l5.3125 3.539062v49.054688c0 13.230469 10.769531 24 24 24h40c13.230469 0 24-10.769531 24-24v-24h144v24c0 13.230469 10.769531 24 24 24h40c13.230469 0 24-10.769531 24-24v-49.054688l5.3125-3.546874c6.695312-4.453126 10.6875-11.917969 10.6875-19.957032v-64.816406c0-6.410156-2.496094-12.441406-7.03125-16.96875l-13.960938-13.960938c16.222657-1.542968 28.992188-15.078124 28.992188-31.695312zm-24 91.886719-49.496094 35.351562c-2.558594 1.816407-6.503906-.222656-6.503906-3.359375v-13.453125c4.785156-1.328125 9.351562-3.441406 13.328125-6.425781l42.671875-32zm-52.273438-.6875c-4.117187 3.097656-9.230468 4.800781-14.390624 4.800781h-32.304688c-5.472656-7.960938-12.464844-14.6875-20.496094-19.9375 8.730469-1.636719 17.386719-3.664062 25.890625-6.359375l-4.839843-15.246094c-19.953126 6.335938-40.664063 9.542969-61.585938 9.542969-38.910156 0-76.574219-11.121094-109.304688-32h218.703126c-10.09375 6.441406-20.742188 12.046875-31.78125 16.601562l6.109374 14.796876c13.242188-5.46875 26.015626-12.277344 37.960938-20.238282l13.296875-8.863281 20.839844 20.839844zm-170.285156 68.800781 5.246094-31.457031c3.039062-18.238281 14.273438-33.199219 29.550781-41.488281-12.589843 22.175781-19.558593 47.3125-20.101562 72.945312zm-52.601562 0c-1.582032 0-3.121094-.464844-4.441406-1.34375l-36.839844-24.558594c-2.230469-1.488281-3.558594-3.976562-3.558594-6.65625v-15.898437l40.191406 28.714843c3.433594 2.445313 7.472656 3.742188 11.6875 3.742188 11.097656 0 20.121094-9.023438 20.121094-20.121094v-11.878906h18.664062c-1.664062 4.441406-2.953124 9.078125-3.761718 13.921875l-5.679688 34.078125zm-97.480469-224 27.152344 47.519531c-8.289063-.65625-16.34375-2.128906-24.078125-4.382812l-24.648438-43.136719zm18.425781 0h21.574219l22.855469 40h-18.214844c-1.089844 0-2.144531.113281-3.175781.320312zm61.574219 0 3.769531 6.601562-5.328125 28.421876-20.015625-35.023438zm10.953125 107.160156c24.734375 16.496094 52.28125 27.519532 81.113281 32.9375-8.019531 5.238282-15 11.964844-20.464843 19.910156h-32.304688c-5.160156 0-10.273438-1.703124-14.398438-4.800781l-48.089843-36.0625 20.839843-20.839843zm125.765625 37.023438c3.816406 5.054687 7.335937 10.3125 10.402344 15.816406h-28.960938c3.066407-5.503906 6.59375-10.761719 10.402344-15.816406 1.351563-.09375 2.703125-.183594 4.078125-.183594s2.726562.089844 4.078125.183594zm-26.054687 31.816406h43.960937c2.085937 5.230469 3.953125 10.550781 5.390625 16h-54.742188c1.4375-5.449219 3.296876-10.769531 5.390626-16zm-95.359376-8c3.984376 2.992188 8.550782 5.097656 13.335938 6.425781v13.453125c0 3.136719-3.953125 5.167969-6.503906 3.351563l-49.496094-35.34375v-19.886719zm86.808594 40h61.054688c.753906 5.296875 1.207031 10.632812 1.335937 16h-63.71875c.121094-5.367188.574219-10.703125 1.328125-16zm58.289063-56.9375c15.277343 8.289062 26.511719 23.25 29.550781 41.488281l5.246094 31.449219h-14.695313c-.542969-25.632812-7.511719-50.769531-20.101562-72.9375zm81.269531-163.488281 17.328125 92.425781h-15.582031l-13.769532-82.640625c-1.304687-7.742187-7.9375-13.359375-15.785156-13.359375h-17.222656v16h17.222656l13.328125 80h-189.109375l13.328125-80h129.230469v-16h-129.222656c-7.839844 0-14.480469 5.617188-15.785156 13.375l-13.769532 82.625h-15.582031l14.222656-75.839844.226563-.128906-.152344-.261719 3.03125-16.183593c2.136719-11.355469 12.046875-19.585938 23.582031-19.585938h170.890625c11.542969 0 21.453125 8.230469 23.589844 19.574219zm-194.480469-35.574219c-19.015625 0-35.335937 13.433594-39.125 32h-157.480469c-.496093-.929688-.90625-1.902344-1.378906-2.847656l14.402344-5.96875-6.128906-14.785156-14.441406 5.984374c-3.253907-9.640624-5.292969-19.824218-5.992188-30.382812h31.59375v-16h-31.59375c.707031-10.558594 2.738281-20.742188 6.007812-30.390625l14.441407 5.984375 6.128906-14.785156-14.398437-5.96875c4.636718-9.335938 10.421874-17.96875 17.222656-25.734375l22.320312 22.320312 11.3125-11.3125-22.320312-22.320312c7.765625-6.800781 16.398437-12.585938 25.734375-17.226563l5.96875 14.402344 14.785156-6.128906-5.984375-14.441406c9.632812-3.253907 19.816406-5.292969 30.375-5.992188v31.59375h16v-31.59375c10.558594.707031 20.742188 2.738281 30.390625 6.007812l-5.984375 14.441407 14.785156 6.128906 5.96875-14.398437c9.335938 4.636718 17.96875 10.421874 25.734375 17.222656l-22.320312 22.320312 11.3125 11.3125 22.320312-22.320312c6.800781 7.765625 12.585938 16.398437 17.226563 25.734375l-14.402344 5.96875 6.128906 14.785156 14.441406-5.984375c3.269532 9.648438 5.300782 19.832031 6.007813 30.390625h-31.609375v16h31.726562c-.351562 5.390625-1.09375 10.738281-2.160156 16h-27.015625zm-186.328125 48h19.136719l18.953125 33.175781c-14.945312-8.238281-27.871094-19.625-38.089844-33.175781zm103.777344 64v-8h29.863281l-4.503906 24h-9.359375c-8.824219 0-16-7.175781-16-16zm80 200c0 4.414062-3.585938 8-8 8h-40c-4.414062 0-8-3.585938-8-8v-38.382812l15.527344 10.351562c3.953125 2.640625 8.5625 4.03125 13.3125 4.03125h27.160156zm232 0c0 4.414062-3.585938 8-8 8h-40c-4.414062 0-8-3.585938-8-8v-24h27.160156c4.75 0 9.359375-1.390625 13.3125-4.03125l15.527344-10.351562zm12.441406-65.902344-36.839844 24.558594c-1.328124.878906-2.859374 1.34375-4.441406 1.34375h-36.382812l-5.679688-34.078125c-.808594-4.84375-2.097656-9.480469-3.761718-13.921875h18.664062v11.878906c0 11.097656 9.023438 20.121094 20.121094 20.121094 4.214844 0 8.253906-1.296875 11.6875-3.753906l40.191406-28.703125v15.898437c0 2.679688-1.328125 5.167969-3.558594 6.65625zm11.558594-134.097656c0 8.824219-7.175781 16-16 16h-9.359375l-4.503906-24h29.863281zm0 0"/><path d="m111.289062 145.359375 24.710938 37.066406 24.710938-37.066406-24.710938-86.480469zm24.710938 8.214844-7.289062-10.933594 7.289062-25.519531 7.289062 25.519531zm0 0"/><path d="m384 72c19.007812 0 36.871094 7.480469 50.3125 21.054688l11.375-11.246094c-16.472656-16.640625-38.375-25.808594-61.6875-25.808594s-45.214844 9.167969-61.6875 25.808594l11.375 11.246094c13.441406-13.574219 31.304688-21.054688 50.3125-21.054688zm0 0"/><path d="m423.289062 104.441406c-10.488281-10.609375-24.449218-16.441406-39.289062-16.441406s-28.800781 5.832031-39.289062 16.441406l11.378906 11.246094c7.453125-7.535156 17.375-11.6875 27.910156-11.6875s20.457031 4.152344 27.910156 11.6875zm0 0"/><path d="m367.113281 127.0625 11.375 11.25c2.953125-2.984375 8.078125-2.984375 11.03125 0l11.375-11.25c-9.023437-9.109375-24.765625-9.109375-33.78125 0zm0 0"/><path d="m128 448h-16v32h-16v-56h-16v56h-16v-80h-16v80h-16v-104h-16v104h-16v16h144v-16h-16zm0 0"/></svg>