<?xml version="1.0" encoding="iso-8859-1"?>
<!-- Generator: Adobe Illustrator 16.0.0, SVG Export Plug-In . SVG Version: 6.00 Build 0)  -->
<!DOCTYPE svg PUBLIC "-//W3C//DTD SVG 1.1//EN" "http://www.w3.org/Graphics/SVG/1.1/DTD/svg11.dtd">
<svg version="1.1" id="Capa_1" xmlns="http://www.w3.org/2000/svg" xmlns:xlink="http://www.w3.org/1999/xlink" x="0px" y="0px"
	 width="601.799px" height="601.799px" viewBox="0 0 601.799 601.799" style="enable-background:new 0 0 601.799 601.799;"
	 xml:space="preserve">
<g>
	<g>
		<path d="M300.899,0C134.716,0,0,134.716,0,300.898c0,166.184,134.716,300.9,300.899,300.9c166.183,0,300.9-134.717,300.9-300.9
			C601.799,134.716,467.082,0,300.899,0z M482.186,480.02c-0.324,0.396-0.604,0.822-0.977,1.193
			c-0.369,0.369-0.795,0.648-1.193,0.977C433.932,527.727,370.652,555.9,300.899,555.9c-69.75,0-133.024-28.17-179.108-73.703
			c-0.401-0.326-0.829-0.609-1.203-0.982c-0.376-0.375-0.658-0.805-0.985-1.205C74.07,433.924,45.9,370.648,45.9,300.898
			c0-69.743,28.167-133.018,73.697-179.101c0.33-0.404,0.612-0.835,0.988-1.212s0.805-0.658,1.208-0.988
			C167.881,74.07,231.155,45.9,300.899,45.9c69.75,0,133.027,28.173,179.111,73.706c0.4,0.328,0.826,0.606,1.199,0.979
			c0.373,0.373,0.652,0.799,0.98,1.199c45.535,46.084,73.709,109.361,73.709,179.114C555.9,370.654,527.725,433.932,482.186,480.02z
			"/>
		<path d="M483.48,285.599h41.238c-3.41-50.374-23.506-96.219-54.811-132.073l-29.088,29.088c-2.986,2.986-6.902,4.479-10.816,4.479
			s-7.834-1.493-10.818-4.479c-5.975-5.977-5.975-15.664,0-21.637l29.086-29.085c-35.854-31.304-81.695-51.399-132.07-54.811v41.239
			c0,8.449-6.85,15.3-15.299,15.3c-8.449,0-15.3-6.852-15.3-15.3V77.082c-50.374,3.412-96.216,23.507-132.073,54.811l29.085,29.085
			c5.976,5.976,5.976,15.664,0,21.637c-2.99,2.986-6.903,4.479-10.82,4.479s-7.831-1.493-10.82-4.479l-29.085-29.085
			c-31.304,35.854-51.396,81.696-54.808,132.07h41.239c8.449,0,15.3,6.851,15.3,15.299c0,8.449-6.852,15.301-15.3,15.301H77.082
			c3.412,50.373,23.507,96.215,54.811,132.068l29.085-29.084c5.976-5.973,15.661-5.973,21.637,0c5.976,5.977,5.976,15.664,0,21.637
			l-29.085,29.086c6.956,6.07,14.244,11.766,21.913,16.955c19.474-50.289,68.299-85.953,125.466-85.953
			c57.164,0,105.98,35.668,125.457,85.953c7.668-5.189,14.957-10.885,21.912-16.955l-29.086-29.086
			c-5.975-5.977-5.975-15.664,0-21.637c5.971-5.973,15.666-5.973,21.635,0l29.088,29.088c31.305-35.854,51.4-81.695,54.812-132.07
			H483.48c-8.453,0-15.301-6.852-15.301-15.299C468.18,292.453,475.027,285.599,483.48,285.599z M335.547,314.959
			c-9.262,19.922-32.919,28.566-52.843,19.303c-19.923-9.262-28.565-32.919-19.302-52.843c5.569-11.98,16.355-19.841,28.396-22.222
			l73.182-101.91l-30.746,121.638C340.172,289.666,341.117,302.979,335.547,314.959z"/>
	</g>
</g>
<g>
</g>
<g>
</g>
<g>
</g>
<g>
</g>
<g>
</g>
<g>
</g>
<g>
</g>
<g>
</g>
<g>
</g>
<g>
</g>
<g>
</g>
<g>
</g>
<g>
</g>
<g>
</g>
<g>
</g>
</svg>
